HIERARCHY
ROOT Root
{
	OFFSET 0.00000 0.00000 0.00000
	CHANNELS 6 Xposition Yposition Zposition Zrotation Xrotation Yrotation
	JOINT Hips
	{
		OFFSET 0 0 0	
		CHANNELS 3 Zrotation Xrotation Yrotation
		JOINT Spine
		{
			OFFSET 0 4 0	
			CHANNELS 3 Zrotation Xrotation Yrotation
			JOINT Spine1
			{
				OFFSET 0 19.4 0	
				CHANNELS 3 Zrotation Xrotation Yrotation
				JOINT Spine2
				{
					OFFSET 0 16.6 0	
					CHANNELS 3 Zrotation Xrotation Yrotation
					JOINT LeftCollar
					{
						OFFSET 0 10 0	
						CHANNELS 3 Zrotation Xrotation Yrotation
						JOINT LeftArm
						{
							OFFSET 15.6 -2 3	
							CHANNELS 3 Zrotation Xrotation Yrotation
							JOINT LeftForeArm
							{
								OFFSET 3.5 -27 -1	
								CHANNELS 3 Zrotation Xrotation Yrotation
								JOINT LeftHand
								{
									OFFSET 1 -27 1	
									CHANNELS 3 Zrotation Xrotation Yrotation
									End Site
									{
										OFFSET 0 -15 0
									}
								}
							}
						}
					}
					JOINT RightCollar
					{
						OFFSET 0 10 0	
						CHANNELS 3 Zrotation Xrotation Yrotation
						JOINT RightArm
						{
							OFFSET -15.6 -2 3	
							CHANNELS 3 Zrotation Xrotation Yrotation
							JOINT RightForeArm
							{
								OFFSET -3.5 -27 -1	
								CHANNELS 3 Zrotation Xrotation Yrotation
								JOINT RightHand
								{
									OFFSET -1 -27 1	
									CHANNELS 3 Zrotation Xrotation Yrotation
									End Site
									{
										OFFSET 0 -15 0
									}
								}
							}
						}
					}
					JOINT Neck
					{
						OFFSET 0 10 0	
						CHANNELS 3 Zrotation Xrotation Yrotation
						JOINT Head
						{
							OFFSET 0 12.7 3	
							CHANNELS 3 Zrotation Xrotation Yrotation
							End Site
							{
								OFFSET 0 12.7 3
							}
						}
					}
				}
			}
		}
	}
	JOINT LeftHip
	{
		OFFSET 0 0 0	
		CHANNELS 3 Zrotation Xrotation Yrotation
		JOINT LeftUpLeg
		{
			OFFSET 8.8 -6 0	
			CHANNELS 3 Zrotation Xrotation Yrotation
			JOINT LeftLeg
			{
				OFFSET 0 -39 2	
				CHANNELS 3 Zrotation Xrotation Yrotation
				JOINT LeftFoot
				{
					OFFSET 0 -43 -2	
					CHANNELS 3 Zrotation Xrotation Yrotation
					JOINT LeftFootFront
					{
						OFFSET 0 -7 8.5	
						CHANNELS 3 Zrotation Xrotation Yrotation
						End Site
						{
							OFFSET 0 -0.5 9
						}
					}
				}
				JOINT LeftHeel
				{
					OFFSET 0 -43 -2	
					CHANNELS 3 Zrotation Xrotation Yrotation
					End Site
					{
						OFFSET 0 -7.5 -5
					}
				}
			}
		}
	}
	JOINT RightHip
	{
		OFFSET 0 0 0	
		CHANNELS 3 Zrotation Xrotation Yrotation
		JOINT RightUpLeg
		{
			OFFSET -8.8 -6 0	
			CHANNELS 3 Zrotation Xrotation Yrotation
			JOINT RightLeg
			{
				OFFSET 0 -39 2	
				CHANNELS 3 Zrotation Xrotation Yrotation
				JOINT RightFoot
				{
					OFFSET 0 -43 -2	
					CHANNELS 3 Zrotation Xrotation Yrotation
					JOINT RightFootFront
					{
						OFFSET 0 -7 8.5	
						CHANNELS 3 Zrotation Xrotation Yrotation
						End Site
						{
							OFFSET 0 -0.5 9
						}
					}
				}
				JOINT RightHeel
				{
					OFFSET 0 -43 -2	
					CHANNELS 3 Zrotation Xrotation Yrotation
					End Site
					{
						OFFSET 0 -7.5 -5
					}
				}
			}
		}
	}
}
MOTION
Frames: 27
Frame Time: 0.05
0 95.5 0 -0 0 -0 -0 0 -0 -0 0 -0 -16.852 25.127 33.078 -0 0 -0 -0 0 -0 -7.1234 -38.886 -21.192 -103.63 -67.329 -92.139 -0 0 -0 -0 0 -0 2.5218 -43.106 19.923 138.03 -28.494 23.826 -0 0 -0 -1.9765 -14.454 -15.869 -1.9765 -14.454 -15.869 -0 0 -0 -0 0 -0 -0 0 -0 -0 0 -0 -0 0 -0 -0 0 -0 -0 0 -0 -0 0 -0 -0 0 -0 -0 0 -0 -0 0 -0 -0 0 -0 
0 95.5 0 -0 0 -0 -0 0 -0 -0 0 -0 -16.307 24.816 32.978 -0 0 -0 -0 0 -0 -7.721 -38.827 -21.31 -101.01 -69.206 -89.434 -0 0 -0 -0 0 -0 2.5132 -42.97 19.883 137.63 -28.772 24.254 -0 0 -0 -1.5794 -13.445 -16.494 -1.5794 -13.445 -16.494 -0 0 -0 -0 0 -0 -0 0 -0 -0 0 -0 -0 0 -0 -0 0 -0 -0 0 -0 -0 0 -0 -0 0 -0 -0 0 -0 -0 0 -0 -0 0 -0 
0 95.5 0 -0 0 -0 -0 0 -0 -0 0 -0 -15.69 24.597 32.757 -0 0 -0 -0 0 -0 -8.3902 -38.863 -21.328 -97.503 -71.123 -85.866 -0 0 -0 -0 0 -0 2.4826 -42.879 19.963 137.22 -29.037 24.718 -0 0 -0 -1.2327 -12.448 -17.029 -1.2327 -12.448 -17.029 -0 0 -0 -0 0 -0 -0 0 -0 -0 0 -0 -0 0 -0 -0 0 -0 -0 0 -0 -0 0 -0 -0 0 -0 -0 0 -0 -0 0 -0 -0 0 -0 
0 95.5 0 -0 0 -0 -0 0 -0 -0 0 -0 -15.174 24.542 32.508 -0 0 -0 -0 0 -0 -9.0489 -39.113 -21.296 -93.043 -72.952 -81.354 -0 0 -0 -0 0 -0 2.5822 -42.997 20.076 136.7 -29.244 25.079 -0 0 -0 -1.0127 -11.745 -17.363 -1.0127 -11.745 -17.363 -0 0 -0 -0 0 -0 -0 0 -0 -0 0 -0 -0 0 -0 -0 0 -0 -0 0 -0 -0 0 -0 -0 0 -0 -0 0 -0 -0 0 -0 -0 0 -0 
0 95.5 0 -0 0 -0 -0 0 -0 -0 0 -0 -14.727 24.509 32.306 -0 0 -0 -0 0 -0 -9.4953 -39.26 -21.171 -88.825 -74.399 -77.011 -0 0 -0 -0 0 -0 2.799 -43.066 20.262 136.11 -29.679 26.044 -0 0 -0 -0.88989 -11.384 -17.516 -0.88989 -11.384 -17.516 -0 0 -0 -0 0 -0 -0 0 -0 -0 0 -0 -0 0 -0 -0 0 -0 -0 0 -0 -0 0 -0 -0 0 -0 -0 0 -0 -0 0 -0 -0 0 -0 
0 95.5 0 -0 0 -0 -0 0 -0 -0 0 -0 -14.38 24.452 32.113 -0 0 -0 -0 0 -0 -9.6745 -39.339 -21.088 -84.846 -75.65 -72.82 -0 0 -0 -0 0 -0 3.1354 -43.03 20.552 135.75 -30.034 26.968 -0 0 -0 -0.7704 -11.237 -17.513 -0.7704 -11.237 -17.513 -0 0 -0 -0 0 -0 -0 0 -0 -0 0 -0 -0 0 -0 -0 0 -0 -0 0 -0 -0 0 -0 -0 0 -0 -0 0 -0 -0 0 -0 -0 0 -0 
0 95.5 0 -0 0 -0 -0 0 -0 -0 0 -0 -14.108 24.366 32.019 -0 0 -0 -0 0 -0 -9.8094 -39.392 -21.015 -80.436 -76.487 -68.291 -0 0 -0 -0 0 -0 3.444 -42.937 20.778 135.64 -30.211 27.637 -0 0 -0 -0.6286 -11.174 -17.47 -0.62861 -11.174 -17.47 -0 0 -0 -0 0 -0 -0 0 -0 -0 0 -0 -0 0 -0 -0 0 -0 -0 0 -0 -0 0 -0 -0 0 -0 -0 0 -0 -0 0 -0 -0 0 -0 
0 95.5 0 -0 0 -0 -0 0 -0 -0 0 -0 -13.853 24.269 31.933 -0 0 -0 -0 0 -0 -9.825 -39.426 -20.853 -75.896 -76.942 -63.457 -0 0 -0 -0 0 -0 3.7722 -42.859 20.985 135.3 -30.432 28.558 -0 0 -0 -0.45861 -11.11 -17.441 -0.45861 -11.11 -17.441 -0 0 -0 -0 0 -0 -0 0 -0 -0 0 -0 -0 0 -0 -0 0 -0 -0 0 -0 -0 0 -0 -0 0 -0 -0 0 -0 -0 0 -0 -0 0 -0 
0 95.5 0 -0 0 -0 -0 0 -0 -0 0 -0 -13.566 24.151 31.786 -0 0 -0 -0 0 -0 -9.8248 -39.37 -20.785 -71.265 -77.208 -58.341 -0 0 -0 -0 0 -0 4.0346 -42.758 21.236 135 -30.475 29.174 -0 0 -0 -0.26691 -10.981 -17.454 -0.26692 -10.981 -17.454 -0 0 -0 -0 0 -0 -0 0 -0 -0 0 -0 -0 0 -0 -0 0 -0 -0 0 -0 -0 0 -0 -0 0 -0 -0 0 -0 -0 0 -0 -0 0 -0 
0 95.5 0 -0 0 -0 -0 0 -0 -0 0 -0 -13.294 24.109 31.648 -0 0 -0 -0 0 -0 -9.8125 -39.356 -20.801 -66.823 -77.386 -53.167 -0 0 -0 -0 0 -0 4.2372 -42.732 21.524 134.43 -30.632 30.096 -0 0 -0 -0.060198 -10.829 -17.513 -0.060198 -10.829 -17.513 -0 0 -0 -0 0 -0 -0 0 -0 -0 0 -0 -0 0 -0 -0 0 -0 -0 0 -0 -0 0 -0 -0 0 -0 -0 0 -0 -0 0 -0 -0 0 -0 
0 95.5 0 -0 0 -0 -0 0 -0 -0 0 -0 -13.047 24.096 31.556 -0 0 -0 -0 0 -0 -9.8577 -39.331 -20.912 -62.72 -77.461 -48.493 -0 0 -0 -0 0 -0 4.3351 -42.738 21.787 134.07 -30.654 30.581 -0 0 -0 0.14344 -10.641 -17.624 0.14344 -10.641 -17.624 -0 0 -0 -0 0 -0 -0 0 -0 -0 0 -0 -0 0 -0 -0 0 -0 -0 0 -0 -0 0 -0 -0 0 -0 -0 0 -0 -0 0 -0 -0 0 -0 
0 95.5 0 -0 0 -0 -0 0 -0 -0 0 -0 -12.842 24.081 31.485 -0 0 -0 -0 0 -0 -9.9078 -39.321 -21.019 -58.984 -77.507 -44.446 -0 0 -0 -0 0 -0 4.448 -42.73 22.048 133.74 -30.709 30.992 -0 0 -0 0.34467 -10.404 -17.764 0.34467 -10.404 -17.764 -0 0 -0 -0 0 -0 -0 0 -0 -0 0 -0 -0 0 -0 -0 0 -0 -0 0 -0 -0 0 -0 -0 0 -0 -0 0 -0 -0 0 -0 -0 0 -0 
0 95.5 0 -0 0 -0 -0 0 -0 -0 0 -0 -12.662 24 31.45 -0 0 -0 -0 0 -0 -9.9492 -39.296 -21.151 -55.792 -77.437 -41.049 -0 0 -0 -0 0 -0 4.5664 -42.687 22.265 133.51 -30.67 31.322 -0 0 -0 0.56402 -10.094 -17.919 0.56402 -10.094 -17.919 -0 0 -0 -0 0 -0 -0 0 -0 -0 0 -0 -0 0 -0 -0 0 -0 -0 0 -0 -0 0 -0 -0 0 -0 -0 0 -0 -0 0 -0 -0 0 -0 
0 95.5 0 -0 0 -0 -0 0 -0 -0 0 -0 -12.454 23.903 31.426 -0 0 -0 -0 0 -0 -9.9533 -39.227 -21.27 -53.595 -77.331 -38.454 -0 0 -0 -0 0 -0 4.6677 -42.62 22.405 133.04 -30.653 31.963 -0 0 -0 0.7822 -9.7583 -18.086 0.7822 -9.7583 -18.086 -0 0 -0 -0 0 -0 -0 0 -0 -0 0 -0 -0 0 -0 -0 0 -0 -0 0 -0 -0 0 -0 -0 0 -0 -0 0 -0 -0 0 -0 -0 0 -0 
0 95.5 0 -0 0 -0 -0 0 -0 -0 0 -0 -12.266 23.882 31.35 -0 0 -0 -0 0 -0 -9.9973 -39.149 -21.292 -52.443 -77.236 -36.943 -0 0 -0 -0 0 -0 4.7625 -42.624 22.657 132.85 -30.425 32.326 -0 0 -0 0.99355 -9.4726 -18.229 0.99355 -9.4726 -18.229 -0 0 -0 -0 0 -0 -0 0 -0 -0 0 -0 -0 0 -0 -0 0 -0 -0 0 -0 -0 0 -0 -0 0 -0 -0 0 -0 -0 0 -0 -0 0 -0 
0 95.5 0 -0 0 -0 -0 0 -0 -0 0 -0 -12.096 23.973 31.227 -0 0 -0 -0 0 -0 -10.014 -39.141 -21.211 -51.92 -77.163 -36.169 -0 0 -0 -0 0 -0 4.8269 -42.738 23.018 132.54 -30.361 33.282 -0 0 -0 1.1598 -9.2774 -18.331 1.1598 -9.2774 -18.331 -0 0 -0 -0 0 -0 -0 0 -0 -0 0 -0 -0 0 -0 -0 0 -0 -0 0 -0 -0 0 -0 -0 0 -0 -0 0 -0 -0 0 -0 -0 0 -0 
0 95.5 0 -0 0 -0 -0 0 -0 -0 0 -0 -11.97 24.06 31.172 -0 0 -0 -0 0 -0 -10.018 -39.081 -21.205 -51.685 -77.125 -35.805 -0 0 -0 -0 0 -0 4.903 -42.845 23.302 132.36 -30.204 33.83 -0 0 -0 1.2678 -9.1196 -18.439 1.2678 -9.1196 -18.439 -0 0 -0 -0 0 -0 -0 0 -0 -0 0 -0 -0 0 -0 -0 0 -0 -0 0 -0 -0 0 -0 -0 0 -0 -0 0 -0 -0 0 -0 -0 0 -0 
0 95.5 0 -0 0 -0 -0 0 -0 -0 0 -0 -11.836 24.099 31.111 -0 0 -0 -0 0 -0 -9.9399 -38.997 -21.132 -51.438 -77.064 -35.393 -0 0 -0 -0 0 -0 4.9696 -42.839 23.597 132.18 -30.13 34.626 -0 0 -0 1.3384 -8.9715 -18.489 1.3384 -8.9715 -18.489 -0 0 -0 -0 0 -0 -0 0 -0 -0 0 -0 -0 0 -0 -0 0 -0 -0 0 -0 -0 0 -0 -0 0 -0 -0 0 -0 -0 0 -0 -0 0 -0 
0 95.5 0 -0 0 -0 -0 0 -0 -0 0 -0 -11.726 24.149 31.066 -0 0 -0 -0 0 -0 -9.8451 -38.954 -21.033 -50.763 -76.942 -34.675 -0 0 -0 -0 0 -0 5.0055 -42.839 23.837 132.06 -30.175 35.909 -0 0 -0 1.4001 -8.879 -18.474 1.4001 -8.879 -18.474 -0 0 -0 -0 0 -0 -0 0 -0 -0 0 -0 -0 0 -0 -0 0 -0 -0 0 -0 -0 0 -0 -0 0 -0 -0 0 -0 -0 0 -0 -0 0 -0 
0 95.5 0 -0 0 -0 -0 0 -0 -0 0 -0 -11.539 24.276 30.971 -0 0 -0 -0 0 -0 -9.8452 -38.993 -20.914 -49.74 -76.775 -33.522 -0 0 -0 -0 0 -0 4.9856 -42.882 23.992 131.74 -30.47 37.716 -0 0 -0 1.4237 -8.8232 -18.405 1.4237 -8.8232 -18.405 -0 0 -0 -0 0 -0 -0 0 -0 -0 0 -0 -0 0 -0 -0 0 -0 -0 0 -0 -0 0 -0 -0 0 -0 -0 0 -0 -0 0 -0 -0 0 -0 
0 95.5 0 -0 0 -0 -0 0 -0 -0 0 -0 -11.443 24.343 30.874 -0 0 -0 -0 0 -0 -9.7668 -39.024 -20.769 -48.658 -76.668 -32.325 -0 0 -0 -0 0 -0 5.0867 -42.933 24.228 131.33 -31.211 40.623 -0 0 -0 1.5446 -8.7536 -18.305 1.5446 -8.7536 -18.305 -0 0 -0 -0 0 -0 -0 0 -0 -0 0 -0 -0 0 -0 -0 0 -0 -0 0 -0 -0 0 -0 -0 0 -0 -0 0 -0 -0 0 -0 -0 0 -0 
0 95.5 0 -0 0 -0 -0 0 -0 -0 0 -0 -11.352 24.397 30.768 -0 0 -0 -0 0 -0 -9.6457 -39.041 -20.446 -48.372 -76.525 -31.799 -0 0 -0 -0 0 -0 5.1941 -42.963 24.504 130.94 -32.232 44.228 -0 0 -0 1.56 -8.7479 -18.245 1.56 -8.7479 -18.245 -0 0 -0 -0 0 -0 -0 0 -0 -0 0 -0 -0 0 -0 -0 0 -0 -0 0 -0 -0 0 -0 -0 0 -0 -0 0 -0 -0 0 -0 -0 0 -0 
0 95.5 0 -0 0 -0 -0 0 -0 -0 0 -0 -11.288 24.437 30.699 -0 0 -0 -0 0 -0 -9.6412 -39.024 -20.296 -47.577 -76.519 -30.541 -0 0 -0 -0 0 -0 5.2551 -42.991 24.786 130.68 -33.38 48.2 -0 0 -0 1.5712 -8.7634 -18.177 1.5712 -8.7634 -18.177 -0 0 -0 -0 0 -0 -0 0 -0 -0 0 -0 -0 0 -0 -0 0 -0 -0 0 -0 -0 0 -0 -0 0 -0 -0 0 -0 -0 0 -0 -0 0 -0 
0 95.5 0 -0 0 -0 -0 0 -0 -0 0 -0 -11.278 24.463 30.669 -0 0 -0 -0 0 -0 -9.6506 -39.037 -20.172 -47.33 -76.486 -29.997 -0 0 -0 -0 0 -0 5.3009 -43.02 24.965 130.57 -34.238 51.161 -0 0 -0 1.608 -8.87 -18.061 1.608 -8.87 -18.061 -0 0 -0 -0 0 -0 -0 0 -0 -0 0 -0 -0 0 -0 -0 0 -0 -0 0 -0 -0 0 -0 -0 0 -0 -0 0 -0 -0 0 -0 -0 0 -0 
0 95.5 0 -0 0 -0 -0 0 -0 -0 0 -0 -11.32 24.546 30.671 -0 0 -0 -0 0 -0 -9.6349 -39.162 -20.037 -47.004 -76.384 -29.348 -0 0 -0 -0 0 -0 5.2859 -43.068 25.061 130.57 -34.522 52.377 -0 0 -0 1.588 -9.3377 -17.814 1.588 -9.3377 -17.814 -0 0 -0 -0 0 -0 -0 0 -0 -0 0 -0 -0 0 -0 -0 0 -0 -0 0 -0 -0 0 -0 -0 0 -0 -0 0 -0 -0 0 -0 -0 0 -0 
0 95.5 0 -0 0 -0 -0 0 -0 -0 0 -0 -11.418 24.703 30.632 -0 0 -0 -0 0 -0 -9.5275 -39.329 -19.822 -46.818 -76.281 -28.723 -0 0 -0 -0 0 -0 5.2653 -43.185 25.223 130.79 -34.502 52.716 -0 0 -0 1.4567 -10.395 -17.281 1.4567 -10.395 -17.281 -0 0 -0 -0 0 -0 -0 0 -0 -0 0 -0 -0 0 -0 -0 0 -0 -0 0 -0 -0 0 -0 -0 0 -0 -0 0 -0 -0 0 -0 -0 0 -0 
0 95.5 0 -0 0 -0 -0 0 -0 -0 0 -0 -11.363 24.744 30.541 -0 0 -0 -0 0 -0 -9.43 -39.205 -19.544 -46.937 -76.252 -28.469 -0 0 -0 -0 0 -0 5.2507 -43.107 25.343 130.95 -34.501 52.959 -0 0 -0 1.1613 -11.701 -16.511 1.1613 -11.701 -16.511 -0 0 -0 -0 0 -0 -0 0 -0 -0 0 -0 -0 0 -0 -0 0 -0 -0 0 -0 -0 0 -0 -0 0 -0 -0 0 -0 -0 0 -0 -0 0 -0 
